<svg width="64" height="64" viewBox="0 0 64 64" fill="none" xmlns="http://www.w3.org/2000/svg">
<mask id="mask0" style="mask-type:alpha" maskUnits="userSpaceOnUse" x="0" y="0" width="64" height="64">
<path d="M39.668 47.588C41.221 46.059 40.383 42.547 37.846 38.49C38.768 38.346 39.63 38.126 40.282 37.789C42.628 36.578 44.212 34.371 45.411 32.088C46.7 29.639 47.565 26.947 49.247 24.717C49.531 24.34 49.815 24.002 50.098 23.684C53.727 24.119 56.624 24.899 56.624 24.899L57.731 22.086C56.3338 21.5845 54.9011 21.1878 53.445 20.899C54.337 20.392 54.919 20.234 54.919 20.234L53.87 17.398C52.188 18.109 50.823 19.158 49.68 20.414C45.408 20.175 41.106 21.026 37.712 23.658C35.16 25.638 33.436 28.383 31.814 31.129C30.3769 29.7187 28.8464 28.4067 27.233 27.202C27.539 26.699 27.867 26.247 28.22 25.898C30.353 23.798 33.167 22.455 35.013 20.052C38.893 15.006 36.055 7.096 32.863 3C32.291 3.551 31.345 4.354 30.633 4.988C34.026 8.463 36.399 14.547 33.74 19.093C32.254 21.634 29.508 23.228 27.588 25.411C27.256 25.79 26.959 26.27 26.69 26.8C21.669 23.199 17.061 21.75 15.235 23.548C15.0537 23.7335 14.9043 23.9477 14.793 24.182L14.786 24.175L14.737 24.318C14.669 24.473 14.607 24.634 14.565 24.81L2 61L38.662 48.182L38.652 48.172C39.046 48.045 39.393 47.858 39.668 47.588ZM9.293 56.332L6.233 54.906L8.298 48.956L17.769 53.368L9.293 56.332V56.332ZM26.244 50.405L10.365 43.006L12.43 37.057L24.296 43.013C17.213 38.403 14.495 31.106 14.495 31.106L15.201 29.073C16.456 32.248 19.217 36.202 23.011 39.934C26.837 43.7 30.892 46.428 34.133 47.647L26.244 50.405V50.405ZM32.343 31.665C34.001 29.288 35.71 26.889 38.086 25.182C40.348 23.556 44.02 23.259 47.501 23.454C46.325 25.508 45.456 27.787 44.676 29.976C43.733 32.626 42.469 35.374 40.059 36.999C39.409 37.437 38.498 37.757 37.525 37.994C36.188 35.945 34.434 33.779 32.343 31.665" fill="black"/>
<path d="M23.0329 22C24.0349 22 21.0309 19 21.5329 16.369C23.4569 16.221 27.8549 17.088 25.2949 13.572C28.1909 14.082 29.6909 11.92 26.9569 9.87103C27.8669 9.93503 29.2809 8.21903 28.2659 8.00203C25.0139 7.31303 23.7409 9.07203 25.8049 11.609C23.6349 11.205 21.8659 12.214 23.4959 14.48C17.2299 13.699 20.7949 22 23.0329 22Z" fill="black"/>
<path d="M44.5449 19.334C45.4839 18.91 43.8909 16.109 43.3729 15.393C47.3359 14.969 47.1859 13.788 44.7009 11.258C51.4569 11.485 44.9099 7.64497 45.8279 6.12497C46.6229 4.80697 49.0619 6.18897 48.8359 5.45497C48.0739 2.99997 40.8459 4.65997 45.4199 9.24397C41.4279 9.32197 41.0449 10.627 44.0199 13.332C38.8379 13.389 43.0659 20 44.5449 19.334" fill="black"/>
<path d="M61.6971 29.225C60.1151 29.668 59.8711 29.502 60.0821 31.077C56.4281 29.395 52.5621 27.056 54.9081 33.253C50.7581 30.782 50.9651 32.946 50.1891 36.507C49.1791 35.72 47.7441 33.646 47.7441 33.646L46.2241 34.937C46.2241 34.937 49.0091 38.865 50.3841 38.642C51.5931 38.447 52.2511 36.162 52.3181 34.148C56.1681 35.773 58.0111 35.99 56.2501 31.238C59.3281 32.967 63.1021 34.492 61.6971 29.225" fill="black"/>
<path d="M6.04897 11.437L8.87697 14.266L6.04897 17.094L3.21997 14.266L6.04897 11.437Z" fill="black"/>
<path d="M12.824 23.1979L9.99404 26.0259L7.16504 23.1959L9.99504 20.3669L12.824 23.1979Z" fill="black"/>
<path d="M17.2201 7L20.0481 9.828L17.2191 12.658L14.3911 9.828L17.2201 7Z" fill="black"/>
<path d="M48.0109 46.484L45.1809 43.6549L48.0089 40.825L50.8389 43.6539L48.0109 46.484Z" fill="black"/>
<path d="M41.705 56.1861L38.877 53.3581L41.705 50.5291L44.534 53.3581L41.705 56.1861Z" fill="black"/>
<path d="M54.113 58.42L51.283 55.591L54.11 52.761L56.94 55.59L54.113 58.42Z" fill="black"/>
<path d="M56.941 45.536L54.113 42.707L56.941 39.879L59.769 42.707L56.941 45.536Z" fill="black"/>
<path d="M52.2201 10L55.0481 12.828L52.2191 15.657L49.3911 12.828L52.2201 10Z" fill="black"/>
</mask>
<g mask="url(#mask0)">
<rect x="-20" y="-9" width="100" height="104" fill="url(#paint0_linear)"/>
</g>
<defs>
<linearGradient id="paint0_linear" x1="30" y1="-9" x2="30" y2="95" gradientUnits="userSpaceOnUse">
<stop stop-color="#D30303"/>
<stop offset="1" stop-color="#FA5AF3"/>
</linearGradient>
</defs>
</svg>
