<svg width="66" height="66" viewBox="0 0 66 66" fill="none" xmlns="http://www.w3.org/2000/svg">
<mask id="mask0" style="mask-type:alpha" maskUnits="userSpaceOnUse" x="0" y="0" width="66" height="66">
<path d="M32.9998 8.2583C31.9175 8.2583 30.8458 8.47148 29.8458 8.88567C28.8459 9.29985 27.9373 9.90694 27.172 10.6723C26.4067 11.4376 25.7996 12.3461 25.3854 13.3461C24.9712 14.346 24.7581 15.4177 24.7581 16.5001C24.7581 17.5824 24.9712 18.6541 25.3854 19.654C25.7996 20.654 26.4067 21.5625 27.172 22.3278C27.9373 23.0932 28.8459 23.7003 29.8458 24.1144C30.8458 24.5286 31.9175 24.7418 32.9998 24.7418C35.1857 24.7418 37.282 23.8735 38.8276 22.3278C40.3732 20.7822 41.2416 18.6859 41.2416 16.5001C41.2416 14.3142 40.3732 12.2179 38.8276 10.6723C37.282 9.12663 35.1857 8.2583 32.9998 8.2583V8.2583Z" fill="black"/>
<path d="M51.5625 12.375C49.9215 12.375 48.3477 13.0269 47.1873 14.1873C46.0269 15.3477 45.375 16.9215 45.375 18.5625C45.375 20.2035 46.0269 21.7773 47.1873 22.9377C48.3477 24.0981 49.9215 24.75 51.5625 24.75C53.2035 24.75 54.7773 24.0981 55.9377 22.9377C57.0981 21.7773 57.75 20.2035 57.75 18.5625C57.75 16.9215 57.0981 15.3477 55.9377 14.1873C54.7773 13.0269 53.2035 12.375 51.5625 12.375V12.375Z" fill="black"/>
<path d="M14.4375 12.375C12.7965 12.375 11.2227 13.0269 10.0623 14.1873C8.9019 15.3477 8.25 16.9215 8.25 18.5625C8.25 20.2035 8.9019 21.7773 10.0623 22.9377C11.2227 24.0981 12.7965 24.75 14.4375 24.75C16.0785 24.75 17.6523 24.0981 18.8127 22.9377C19.9731 21.7773 20.625 20.2035 20.625 18.5625C20.625 16.9215 19.9731 15.3477 18.8127 14.1873C17.6523 13.0269 16.0785 12.375 14.4375 12.375Z" fill="black"/>
<path d="M20.625 32.9711C20.6326 31.8821 21.0706 30.8403 21.8433 30.073C22.6161 29.3056 23.661 28.875 24.75 28.875H41.25C42.344 28.875 43.3932 29.3096 44.1668 30.0832C44.9404 30.8568 45.375 31.906 45.375 33V45.375C45.3747 46.6732 45.1715 47.9634 44.7728 49.1989C43.8594 51.9985 41.9778 54.3809 39.466 55.9181C36.9542 57.4553 33.9766 58.0467 31.068 57.5861C28.1593 57.1255 25.5102 55.6431 23.5962 53.405C21.6822 51.167 20.6287 48.3199 20.625 45.375V33V32.9711Z" fill="black"/>
<path d="M16.5 33C16.5 31.4944 16.9001 30.0877 17.6055 28.875H8.25C7.15598 28.875 6.10677 29.3096 5.33318 30.0832C4.5596 30.8568 4.125 31.906 4.125 33V43.3125C4.12444 45.0009 4.53843 46.6636 5.33063 48.1546C6.12282 49.6456 7.26898 50.9193 8.66845 51.8638C10.0679 52.8083 11.6779 53.3948 13.357 53.5717C15.0361 53.7486 16.7329 53.5105 18.2985 52.8784C17.1112 50.5542 16.4947 47.9807 16.5 45.3709V33Z" fill="black"/>
<path d="M49.4999 33V45.375C49.4999 48.0769 48.8523 50.6261 47.7014 52.8784C49.267 53.5105 50.9638 53.7486 52.6429 53.5717C54.322 53.3948 55.932 52.8083 57.3315 51.8638C58.7309 50.9193 59.8771 49.6456 60.6693 48.1546C61.4615 46.6636 61.8755 45.0009 61.8749 43.3125V33C61.8749 31.906 61.4403 30.8568 60.6667 30.0832C59.8931 29.3096 58.8439 28.875 57.7499 28.875H48.3944C49.0957 30.0877 49.4999 31.4944 49.4999 33Z" fill="black"/>
</mask>
<g mask="url(#mask0)">
<rect x="-32" y="-32" width="100" height="104" fill="url(#paint0_linear)"/>
</g>
<defs>
<linearGradient id="paint0_linear" x1="18" y1="-32" x2="18" y2="72" gradientUnits="userSpaceOnUse">
<stop stop-color="#D30303"/>
<stop offset="1" stop-color="#FA5AF3"/>
</linearGradient>
</defs>
</svg>
