<svg width="50" height="58" viewBox="0 0 50 58" fill="none" xmlns="http://www.w3.org/2000/svg">
<mask id="mask0" style="mask-type:alpha" maskUnits="userSpaceOnUse" x="0" y="0" width="50" height="58">
<g clip-path="url(#clip0)">
<path d="M26.5624 16.7009C24.5225 17.8661 21.685 19.4898 18.05 21.572C14.415 23.6542 11.5776 25.2887 9.53766 26.4755C7.0203 25.6987 4.91527 24.2962 3.22256 22.2679L2.86449 22.4945C2.60407 22.6455 2.32195 22.6833 2.01813 22.6077C1.71431 22.5322 1.4756 22.365 1.30199 22.1061L0.227768 20.2612C0.0758587 20.0023 0.0433066 19.711 0.130112 19.3873C0.216918 19.0637 0.390529 18.8155 0.650945 18.6429L1.00902 18.4487C-0.141155 15.471 -0.168282 12.4448 0.927638 9.37002C2.02356 6.29524 3.99296 3.9487 6.83584 2.33039C9.72212 0.690514 12.7603 0.161868 15.9504 0.744457C19.1405 1.32705 21.7555 2.85904 23.7955 5.34044L24.1535 5.11388C24.4574 4.96284 24.7612 4.93586 25.065 5.03296C25.3688 5.13006 25.6075 5.30807 25.7811 5.567L26.8228 7.41187C26.9747 7.6708 27.0127 7.9513 26.9367 8.25339C26.8608 8.55547 26.6926 8.79282 26.4322 8.96544L26.009 9.192C26.9205 11.5871 27.1049 14.0901 26.5624 16.7009ZM34.7981 53.2422C35.601 54.7742 36.6047 55.9502 37.8091 56.7701C39.0136 57.5901 40.3102 58 41.6991 58C44.1297 58 46.1316 57.2071 47.705 55.6211C49.2783 54.0352 50.0542 52.0663 50.0324 49.7143C50.0324 48.9591 49.9728 48.2039 49.8534 47.4487C49.7341 46.6935 49.6093 46.057 49.4791 45.5391C49.3489 45.0212 49.1481 44.4333 48.8769 43.7751C48.6056 43.117 48.4048 42.6531 48.2746 42.3834C48.1444 42.1137 47.9274 41.6929 47.6236 41.1211C47.3198 40.5493 47.157 40.2311 47.1353 40.1663C46.6579 39.2601 46.1642 38.6451 45.6542 38.3215C45.1442 37.9978 44.7265 37.9223 44.4009 38.0949C44.1839 38.2028 44.032 38.4078 43.9452 38.7099C43.8584 39.0119 43.8693 39.4057 43.9778 39.8912C44.0863 40.3767 44.2924 40.8892 44.5963 41.4286C45.2256 42.5075 45.8495 43.9262 46.468 45.6847C47.0865 47.4433 47.3957 48.8728 47.3957 49.9732C47.3957 51.3758 46.8044 52.5949 45.6216 53.6306C44.4389 54.6663 43.0772 55.1842 41.5364 55.1842C40.2777 55.1842 38.9322 54.019 37.4999 51.6887L37.7603 51.5268C38.3463 51.1816 38.7803 50.8633 39.0624 50.572C39.3445 50.2807 39.5181 49.8977 39.5832 49.423C39.6483 48.9483 39.5181 48.4089 39.1926 47.8047L26.8879 19.8081L21.5819 22.8505L24.2838 27.4788C24.414 27.6946 24.4411 27.9374 24.3651 28.2071C24.2892 28.4768 24.1427 28.6764 23.9257 28.8058L22.6561 29.5179L21.3866 30.2299C21.1479 30.381 20.9038 30.4188 20.6542 30.3432C20.4046 30.2677 20.2039 30.1113 20.052 29.8739L17.3827 25.2779L12.0767 28.3204L30.3059 52.9186C30.9135 53.7169 31.532 54.1539 32.1614 54.2294C32.7907 54.3049 33.496 54.0837 34.2772 53.5659L34.7981 53.2422Z" fill="black"/>
</g>
</mask>
<g mask="url(#mask0)">
<rect x="-25" y="-17" width="100" height="104" fill="url(#paint0_linear)"/>
</g>
<defs>
<linearGradient id="paint0_linear" x1="25" y1="-17" x2="25" y2="87" gradientUnits="userSpaceOnUse">
<stop stop-color="#D30303"/>
<stop offset="1" stop-color="#FA5AF3"/>
</linearGradient>
<clipPath id="clip0">
<rect width="50" height="58" fill="white"/>
</clipPath>
</defs>
</svg>
